<svg width="1024" height="1024" viewBox="0 0 1024 1024" fill="none" xmlns="http://www.w3.org/2000/svg">
  <rect width="1024" height="1024" fill="#101A20"/>
  <circle cx="512" cy="490" r="390" fill="#172A28"/>

  <path d="M0 208H1024M0 410H1024M0 612H1024M0 814H1024" fill="none" stroke="#33444B" stroke-width="5"/>
  <path d="M190 208V410M510 208V410M830 208V410M30 410V612M350 410V612M670 410V612M990 410V612M190 612V814M510 612V814M830 612V814" fill="none" stroke="#33444B" stroke-width="5"/>

  <path d="M296 605C340 498 390 383 480 370C576 356 582 474 660 466C708 461 743 422 756 385C763 461 744 558 696 617C634 694 518 682 456 651C390 619 349 651 296 681C304 654 302 629 296 605Z" fill="#22C55E"/>
  <path d="M481 370C576 356 582 474 660 466C708 461 743 422 756 385C763 461 744 558 696 617C642 684 549 685 483 662C549 594 557 482 481 370Z" fill="#06B6D4"/>
  <path d="M650 468C702 460 741 419 756 385C763 461 744 558 696 617C673 645 644 663 612 672C665 600 681 531 650 468Z" fill="#F59E0B"/>
  <path d="M363 579C417 546 447 496 467 443C478 508 503 570 558 600C490 583 430 580 363 579Z" fill="#0E171C" fill-opacity="0.82"/>
  <circle cx="705" cy="328" r="26" fill="#F59E0B"/>
  <circle cx="759" cy="292" r="13" fill="#06B6D4"/>

  <path d="M190 190H374V232H232V374H190V190Z" fill="#F5FBF8"/>
  <path d="M650 190H834V374H792V232H650V190Z" fill="#F5FBF8"/>
  <path d="M792 650H834V834H650V792H792V650Z" fill="#F5FBF8"/>
  <path d="M190 650H232V792H374V834H190V650Z" fill="#F5FBF8"/>
  <path d="M244 244H360V262H262V360H244V244Z" fill="#7BE252"/>
  <path d="M664 244H780V360H762V262H664V244Z" fill="#7BE252"/>
  <path d="M762 664H780V780H664V762H762V664Z" fill="#7BE252"/>
  <path d="M244 664H262V762H360V780H244V664Z" fill="#7BE252"/>

  <circle cx="512" cy="512" r="18" fill="#F5FBF8"/>
  <circle cx="512" cy="512" r="8" fill="#111A20"/>
</svg>
