<svg width="1400" height="360" viewBox="0 0 1400 360" fill="none" xmlns="http://www.w3.org/2000/svg">
  <defs>
    <linearGradient id="bg" x1="0" y1="0" x2="1400" y2="360" gradientUnits="userSpaceOnUse">
      <stop stop-color="#121826"/>
      <stop offset="1" stop-color="#1F2937"/>
    </linearGradient>
    <linearGradient id="accent" x1="70" y1="70" x2="360" y2="300" gradientUnits="userSpaceOnUse">
      <stop stop-color="#22C55E"/>
      <stop offset="1" stop-color="#06B6D4"/>
    </linearGradient>
    <filter id="soft" x="0" y="0" width="1400" height="360" filterUnits="userSpaceOnUse" color-interpolation-filters="sRGB">
      <feGaussianBlur stdDeviation="18"/>
    </filter>
  </defs>

  <rect x="0" y="0" width="1400" height="360" rx="24" fill="url(#bg)"/>

  <g opacity="0.16" filter="url(#soft)">
    <circle cx="180" cy="120" r="70" fill="#22C55E"/>
    <circle cx="260" cy="220" r="90" fill="#06B6D4"/>
    <circle cx="360" cy="120" r="55" fill="#F59E0B"/>
  </g>

  <g transform="translate(70 60)">
    <rect x="0" y="28" width="190" height="220" rx="30" fill="#0B1220" stroke="#4B5563" stroke-width="3"/>
    <rect x="48" y="0" width="94" height="44" rx="16" fill="#0B1220" stroke="#4B5563" stroke-width="3"/>
    <rect x="24" y="76" width="142" height="94" rx="18" fill="url(#accent)"/>
    <rect x="58" y="184" width="74" height="30" rx="15" fill="#111827" stroke="#4B5563" stroke-width="2"/>
    <circle cx="95" cy="123" r="18" fill="#111827"/>
    <circle cx="95" cy="123" r="9" fill="#E5E7EB"/>

    <path d="M214 56C250 30 292 30 322 56" stroke="#22C55E" stroke-width="12" stroke-linecap="round"/>
    <path d="M232 86C262 64 290 64 312 86" stroke="#06B6D4" stroke-width="10" stroke-linecap="round"/>
    <path d="M246 112C268 96 286 96 300 112" stroke="#F59E0B" stroke-width="8" stroke-linecap="round"/>
  </g>

  <text x="470" y="156" fill="#F9FAFB" font-family="Segoe UI, Arial, sans-serif" font-size="66" font-weight="800" letter-spacing="1.1">
    GRAFFITI DETECTION AI
  </text>
  <text x="472" y="212" fill="#9CA3AF" font-family="Segoe UI, Arial, sans-serif" font-size="28" font-weight="600" letter-spacing="0.4">
    Real-time vandalism detection, surveillance, and response
  </text>

  <g opacity="0.55" fill="#374151">
    <rect x="470" y="245" width="18" height="44" rx="2"/>
    <rect x="494" y="232" width="18" height="57" rx="2"/>
    <rect x="518" y="252" width="18" height="37" rx="2"/>
    <rect x="542" y="220" width="18" height="69" rx="2"/>
    <rect x="566" y="240" width="18" height="49" rx="2"/>
    <rect x="590" y="226" width="18" height="63" rx="2"/>
  </g>
</svg>
